<mxfile host="app.diagrams.net" modified="2022-06-20T09:12:02.945Z" agent="5.0 (Windows)" etag="Uxzw9EBG3RLBtEkgEb2H" version="20.0.1" type="github" pages="2">
  <diagram id="Kbrhqd7FR3-pQ79yrPqg" name="Page-1">
    <mxGraphModel dx="1038" dy="536" grid="1" gridSize="10" guides="1" tooltips="1" connect="1" arrows="1" fold="1" page="1" pageScale="1" pageWidth="827" pageHeight="1169" math="0" shadow="0">
      <root>
        <mxCell id="0" />
        <mxCell id="1" parent="0" />
        <mxCell id="XHaymyH-OcNQrWSebr7a-3" value="&lt;span style=&quot;font-size: 20px;&quot;&gt;Annotated Transition System&lt;/span&gt;" style="rounded=0;whiteSpace=wrap;html=1;align=center;verticalAlign=top;" parent="1" vertex="1">
          <mxGeometry x="80" y="190" width="480" height="310" as="geometry" />
        </mxCell>
        <mxCell id="XHaymyH-OcNQrWSebr7a-24" value="" style="edgeStyle=orthogonalEdgeStyle;rounded=0;orthogonalLoop=1;jettySize=auto;html=1;fontSize=10;" parent="1" source="XHaymyH-OcNQrWSebr7a-9" target="XHaymyH-OcNQrWSebr7a-10" edge="1">
          <mxGeometry relative="1" as="geometry">
            <Array as="points">
              <mxPoint x="180" y="350" />
              <mxPoint x="180" y="350" />
            </Array>
          </mxGeometry>
        </mxCell>
        <mxCell id="XHaymyH-OcNQrWSebr7a-37" value="Prediction &lt;br&gt;value" style="edgeLabel;html=1;align=center;verticalAlign=middle;resizable=0;points=[];fontSize=10;" parent="XHaymyH-OcNQrWSebr7a-24" vertex="1" connectable="0">
          <mxGeometry x="-0.0328" relative="1" as="geometry">
            <mxPoint x="30" y="-1" as="offset" />
          </mxGeometry>
        </mxCell>
        <mxCell id="XHaymyH-OcNQrWSebr7a-9" value="Bucket" style="rounded=0;whiteSpace=wrap;html=1;fontSize=20;verticalAlign=bottom;" parent="1" vertex="1">
          <mxGeometry x="105" y="360" width="130" height="90" as="geometry" />
        </mxCell>
        <mxCell id="XHaymyH-OcNQrWSebr7a-35" value="" style="edgeStyle=orthogonalEdgeStyle;rounded=0;orthogonalLoop=1;jettySize=auto;html=1;fontSize=10;entryX=0.232;entryY=0;entryDx=0;entryDy=0;entryPerimeter=0;" parent="1" source="XHaymyH-OcNQrWSebr7a-10" target="XHaymyH-OcNQrWSebr7a-9" edge="1">
          <mxGeometry relative="1" as="geometry">
            <Array as="points">
              <mxPoint x="135" y="340" />
            </Array>
          </mxGeometry>
        </mxCell>
        <mxCell id="XHaymyH-OcNQrWSebr7a-36" value="Event" style="edgeLabel;html=1;align=center;verticalAlign=middle;resizable=0;points=[];fontSize=10;" parent="XHaymyH-OcNQrWSebr7a-35" vertex="1" connectable="0">
          <mxGeometry x="-0.2358" relative="1" as="geometry">
            <mxPoint x="15" y="2" as="offset" />
          </mxGeometry>
        </mxCell>
        <mxCell id="XHaymyH-OcNQrWSebr7a-10" value="State&lt;sub&gt;1&lt;/sub&gt;" style="rounded=1;whiteSpace=wrap;html=1;fontSize=20;" parent="1" vertex="1">
          <mxGeometry x="100" y="270" width="140" height="60" as="geometry" />
        </mxCell>
        <mxCell id="XHaymyH-OcNQrWSebr7a-18" value="&lt;font style=&quot;font-size: 10px; line-height: 0.9;&quot;&gt;model&lt;/font&gt;" style="sketch=0;outlineConnect=0;fontColor=#232F3E;gradientColor=none;fillColor=#067F68;strokeColor=none;dashed=0;verticalLabelPosition=bottom;verticalAlign=top;align=center;html=1;fontSize=12;fontStyle=0;aspect=fixed;pointerEvents=1;shape=mxgraph.aws4.sagemaker_model;horizontal=1;labelPosition=center;spacingBottom=0;spacingRight=0;spacingLeft=0;spacingTop=-8;" parent="1" vertex="1">
          <mxGeometry x="190" y="379" width="28" height="28" as="geometry" />
        </mxCell>
        <mxCell id="XHaymyH-OcNQrWSebr7a-22" style="edgeStyle=orthogonalEdgeStyle;rounded=0;orthogonalLoop=1;jettySize=auto;html=1;exitX=1;exitY=0.3;exitDx=0;exitDy=0;fontSize=10;entryX=0.5;entryY=0;entryDx=0;entryDy=0;" parent="1" source="XHaymyH-OcNQrWSebr7a-21" target="XHaymyH-OcNQrWSebr7a-9" edge="1">
          <mxGeometry relative="1" as="geometry">
            <Array as="points">
              <mxPoint x="150" y="390" />
              <mxPoint x="170" y="390" />
            </Array>
          </mxGeometry>
        </mxCell>
        <mxCell id="XHaymyH-OcNQrWSebr7a-21" value="data" style="shape=datastore;whiteSpace=wrap;html=1;fontSize=10;" parent="1" vertex="1">
          <mxGeometry x="120" y="379" width="30" height="30" as="geometry" />
        </mxCell>
        <mxCell id="XHaymyH-OcNQrWSebr7a-23" style="edgeStyle=orthogonalEdgeStyle;rounded=0;orthogonalLoop=1;jettySize=auto;html=1;fontSize=10;entryX=0.5;entryY=0;entryDx=0;entryDy=0;" parent="1" source="XHaymyH-OcNQrWSebr7a-18" target="XHaymyH-OcNQrWSebr7a-9" edge="1">
          <mxGeometry relative="1" as="geometry">
            <mxPoint x="160.00000000000006" y="419" as="sourcePoint" />
            <mxPoint x="180.00000000000006" y="360" as="targetPoint" />
            <Array as="points">
              <mxPoint x="170" y="390" />
            </Array>
          </mxGeometry>
        </mxCell>
        <mxCell id="XHaymyH-OcNQrWSebr7a-38" value="" style="edgeStyle=orthogonalEdgeStyle;rounded=0;orthogonalLoop=1;jettySize=auto;html=1;fontSize=10;" parent="1" source="XHaymyH-OcNQrWSebr7a-40" target="XHaymyH-OcNQrWSebr7a-43" edge="1">
          <mxGeometry relative="1" as="geometry">
            <Array as="points">
              <mxPoint x="330" y="350" />
              <mxPoint x="330" y="350" />
            </Array>
          </mxGeometry>
        </mxCell>
        <mxCell id="XHaymyH-OcNQrWSebr7a-39" value="Prediction &lt;br&gt;value" style="edgeLabel;html=1;align=center;verticalAlign=middle;resizable=0;points=[];fontSize=10;" parent="XHaymyH-OcNQrWSebr7a-38" vertex="1" connectable="0">
          <mxGeometry x="-0.0328" relative="1" as="geometry">
            <mxPoint x="30" y="-1" as="offset" />
          </mxGeometry>
        </mxCell>
        <mxCell id="XHaymyH-OcNQrWSebr7a-40" value="Bucket" style="rounded=0;whiteSpace=wrap;html=1;fontSize=20;verticalAlign=bottom;" parent="1" vertex="1">
          <mxGeometry x="255" y="360" width="130" height="90" as="geometry" />
        </mxCell>
        <mxCell id="XHaymyH-OcNQrWSebr7a-41" value="" style="edgeStyle=orthogonalEdgeStyle;rounded=0;orthogonalLoop=1;jettySize=auto;html=1;fontSize=10;entryX=0.232;entryY=0;entryDx=0;entryDy=0;entryPerimeter=0;" parent="1" source="XHaymyH-OcNQrWSebr7a-43" target="XHaymyH-OcNQrWSebr7a-40" edge="1">
          <mxGeometry relative="1" as="geometry">
            <Array as="points">
              <mxPoint x="285" y="340" />
            </Array>
          </mxGeometry>
        </mxCell>
        <mxCell id="XHaymyH-OcNQrWSebr7a-42" value="Event" style="edgeLabel;html=1;align=center;verticalAlign=middle;resizable=0;points=[];fontSize=10;" parent="XHaymyH-OcNQrWSebr7a-41" vertex="1" connectable="0">
          <mxGeometry x="-0.2358" relative="1" as="geometry">
            <mxPoint x="15" y="2" as="offset" />
          </mxGeometry>
        </mxCell>
        <mxCell id="XHaymyH-OcNQrWSebr7a-43" value="State&lt;span style=&quot;font-size: 16.6667px;&quot;&gt;2&lt;/span&gt;" style="rounded=1;whiteSpace=wrap;html=1;fontSize=20;" parent="1" vertex="1">
          <mxGeometry x="250" y="270" width="140" height="60" as="geometry" />
        </mxCell>
        <mxCell id="XHaymyH-OcNQrWSebr7a-44" value="&lt;font style=&quot;font-size: 10px; line-height: 0.9;&quot;&gt;model&lt;/font&gt;" style="sketch=0;outlineConnect=0;fontColor=#232F3E;gradientColor=none;fillColor=#067F68;strokeColor=none;dashed=0;verticalLabelPosition=bottom;verticalAlign=top;align=center;html=1;fontSize=12;fontStyle=0;aspect=fixed;pointerEvents=1;shape=mxgraph.aws4.sagemaker_model;horizontal=1;labelPosition=center;spacingBottom=0;spacingRight=0;spacingLeft=0;spacingTop=-8;" parent="1" vertex="1">
          <mxGeometry x="340" y="379" width="28" height="28" as="geometry" />
        </mxCell>
        <mxCell id="XHaymyH-OcNQrWSebr7a-45" style="edgeStyle=orthogonalEdgeStyle;rounded=0;orthogonalLoop=1;jettySize=auto;html=1;exitX=1;exitY=0.3;exitDx=0;exitDy=0;fontSize=10;entryX=0.5;entryY=0;entryDx=0;entryDy=0;" parent="1" source="XHaymyH-OcNQrWSebr7a-46" target="XHaymyH-OcNQrWSebr7a-40" edge="1">
          <mxGeometry relative="1" as="geometry">
            <Array as="points">
              <mxPoint x="300" y="390" />
              <mxPoint x="320" y="390" />
            </Array>
          </mxGeometry>
        </mxCell>
        <mxCell id="XHaymyH-OcNQrWSebr7a-46" value="data" style="shape=datastore;whiteSpace=wrap;html=1;fontSize=10;" parent="1" vertex="1">
          <mxGeometry x="270" y="379" width="30" height="30" as="geometry" />
        </mxCell>
        <mxCell id="XHaymyH-OcNQrWSebr7a-47" style="edgeStyle=orthogonalEdgeStyle;rounded=0;orthogonalLoop=1;jettySize=auto;html=1;fontSize=10;entryX=0.5;entryY=0;entryDx=0;entryDy=0;" parent="1" source="XHaymyH-OcNQrWSebr7a-44" target="XHaymyH-OcNQrWSebr7a-40" edge="1">
          <mxGeometry relative="1" as="geometry">
            <mxPoint x="310.00000000000006" y="419" as="sourcePoint" />
            <mxPoint x="330.00000000000006" y="360" as="targetPoint" />
            <Array as="points">
              <mxPoint x="320" y="390" />
            </Array>
          </mxGeometry>
        </mxCell>
        <mxCell id="XHaymyH-OcNQrWSebr7a-48" value="" style="edgeStyle=orthogonalEdgeStyle;rounded=0;orthogonalLoop=1;jettySize=auto;html=1;fontSize=10;" parent="1" source="XHaymyH-OcNQrWSebr7a-50" target="XHaymyH-OcNQrWSebr7a-53" edge="1">
          <mxGeometry relative="1" as="geometry">
            <Array as="points">
              <mxPoint x="480" y="350" />
              <mxPoint x="480" y="350" />
            </Array>
          </mxGeometry>
        </mxCell>
        <mxCell id="XHaymyH-OcNQrWSebr7a-49" value="Prediction &lt;br&gt;value" style="edgeLabel;html=1;align=center;verticalAlign=middle;resizable=0;points=[];fontSize=10;" parent="XHaymyH-OcNQrWSebr7a-48" vertex="1" connectable="0">
          <mxGeometry x="-0.0328" relative="1" as="geometry">
            <mxPoint x="30" y="-1" as="offset" />
          </mxGeometry>
        </mxCell>
        <mxCell id="XHaymyH-OcNQrWSebr7a-50" value="Bucket" style="rounded=0;whiteSpace=wrap;html=1;fontSize=20;verticalAlign=bottom;" parent="1" vertex="1">
          <mxGeometry x="405" y="360" width="130" height="90" as="geometry" />
        </mxCell>
        <mxCell id="XHaymyH-OcNQrWSebr7a-51" value="" style="edgeStyle=orthogonalEdgeStyle;rounded=0;orthogonalLoop=1;jettySize=auto;html=1;fontSize=10;entryX=0.232;entryY=0;entryDx=0;entryDy=0;entryPerimeter=0;" parent="1" source="XHaymyH-OcNQrWSebr7a-53" target="XHaymyH-OcNQrWSebr7a-50" edge="1">
          <mxGeometry relative="1" as="geometry">
            <Array as="points">
              <mxPoint x="435" y="340" />
            </Array>
          </mxGeometry>
        </mxCell>
        <mxCell id="XHaymyH-OcNQrWSebr7a-52" value="Event" style="edgeLabel;html=1;align=center;verticalAlign=middle;resizable=0;points=[];fontSize=10;" parent="XHaymyH-OcNQrWSebr7a-51" vertex="1" connectable="0">
          <mxGeometry x="-0.2358" relative="1" as="geometry">
            <mxPoint x="15" y="2" as="offset" />
          </mxGeometry>
        </mxCell>
        <mxCell id="XHaymyH-OcNQrWSebr7a-53" value="State&lt;span style=&quot;font-size: 16.6667px;&quot;&gt;n&lt;/span&gt;" style="rounded=1;whiteSpace=wrap;html=1;fontSize=20;" parent="1" vertex="1">
          <mxGeometry x="400" y="270" width="140" height="60" as="geometry" />
        </mxCell>
        <mxCell id="XHaymyH-OcNQrWSebr7a-54" value="&lt;font style=&quot;font-size: 10px; line-height: 0.9;&quot;&gt;model&lt;/font&gt;" style="sketch=0;outlineConnect=0;fontColor=#232F3E;gradientColor=none;fillColor=#067F68;strokeColor=none;dashed=0;verticalLabelPosition=bottom;verticalAlign=top;align=center;html=1;fontSize=12;fontStyle=0;aspect=fixed;pointerEvents=1;shape=mxgraph.aws4.sagemaker_model;horizontal=1;labelPosition=center;spacingBottom=0;spacingRight=0;spacingLeft=0;spacingTop=-8;" parent="1" vertex="1">
          <mxGeometry x="490" y="379" width="28" height="28" as="geometry" />
        </mxCell>
        <mxCell id="XHaymyH-OcNQrWSebr7a-55" style="edgeStyle=orthogonalEdgeStyle;rounded=0;orthogonalLoop=1;jettySize=auto;html=1;exitX=1;exitY=0.3;exitDx=0;exitDy=0;fontSize=10;entryX=0.5;entryY=0;entryDx=0;entryDy=0;" parent="1" source="XHaymyH-OcNQrWSebr7a-56" target="XHaymyH-OcNQrWSebr7a-50" edge="1">
          <mxGeometry relative="1" as="geometry">
            <Array as="points">
              <mxPoint x="450" y="390" />
              <mxPoint x="470" y="390" />
            </Array>
          </mxGeometry>
        </mxCell>
        <mxCell id="XHaymyH-OcNQrWSebr7a-56" value="data" style="shape=datastore;whiteSpace=wrap;html=1;fontSize=10;" parent="1" vertex="1">
          <mxGeometry x="420" y="379" width="30" height="30" as="geometry" />
        </mxCell>
        <mxCell id="XHaymyH-OcNQrWSebr7a-57" style="edgeStyle=orthogonalEdgeStyle;rounded=0;orthogonalLoop=1;jettySize=auto;html=1;fontSize=10;entryX=0.5;entryY=0;entryDx=0;entryDy=0;" parent="1" source="XHaymyH-OcNQrWSebr7a-54" target="XHaymyH-OcNQrWSebr7a-50" edge="1">
          <mxGeometry relative="1" as="geometry">
            <mxPoint x="460.00000000000006" y="419" as="sourcePoint" />
            <mxPoint x="480.00000000000006" y="360" as="targetPoint" />
            <Array as="points">
              <mxPoint x="470" y="390" />
            </Array>
          </mxGeometry>
        </mxCell>
        <mxCell id="XHaymyH-OcNQrWSebr7a-58" style="edgeStyle=orthogonalEdgeStyle;rounded=0;orthogonalLoop=1;jettySize=auto;html=1;exitX=0;exitY=0.194;exitDx=0;exitDy=0;fontSize=10;exitPerimeter=0;" parent="1" source="XHaymyH-OcNQrWSebr7a-3" target="XHaymyH-OcNQrWSebr7a-10" edge="1">
          <mxGeometry relative="1" as="geometry">
            <mxPoint x="60" y="150" as="targetPoint" />
            <Array as="points">
              <mxPoint x="170" y="250" />
            </Array>
          </mxGeometry>
        </mxCell>
        <mxCell id="XHaymyH-OcNQrWSebr7a-59" style="edgeStyle=orthogonalEdgeStyle;rounded=0;orthogonalLoop=1;jettySize=auto;html=1;exitX=0.001;exitY=0.193;exitDx=0;exitDy=0;fontSize=10;exitPerimeter=0;entryX=0.283;entryY=0;entryDx=0;entryDy=0;entryPerimeter=0;" parent="1" source="XHaymyH-OcNQrWSebr7a-3" target="XHaymyH-OcNQrWSebr7a-43" edge="1">
          <mxGeometry relative="1" as="geometry">
            <mxPoint x="180" y="280" as="targetPoint" />
            <mxPoint x="90" y="260.14" as="sourcePoint" />
            <Array as="points">
              <mxPoint x="290" y="250" />
              <mxPoint x="290" y="270" />
            </Array>
          </mxGeometry>
        </mxCell>
        <mxCell id="XHaymyH-OcNQrWSebr7a-60" style="edgeStyle=orthogonalEdgeStyle;rounded=0;orthogonalLoop=1;jettySize=auto;html=1;fontSize=10;exitX=0.001;exitY=0.195;exitDx=0;exitDy=0;exitPerimeter=0;" parent="1" source="XHaymyH-OcNQrWSebr7a-3" target="XHaymyH-OcNQrWSebr7a-53" edge="1">
          <mxGeometry relative="1" as="geometry">
            <mxPoint x="299.62" y="280" as="targetPoint" />
            <mxPoint x="90" y="260" as="sourcePoint" />
            <Array as="points">
              <mxPoint x="450" y="251" />
            </Array>
          </mxGeometry>
        </mxCell>
      </root>
    </mxGraphModel>
  </diagram>
  <diagram id="2E6G_-B95n7B9CmIXXGD" name="Page-2">
    <mxGraphModel dx="1038" dy="536" grid="1" gridSize="10" guides="1" tooltips="1" connect="1" arrows="1" fold="1" page="1" pageScale="1" pageWidth="827" pageHeight="1169" math="0" shadow="0">
      <root>
        <mxCell id="0" />
        <mxCell id="1" parent="0" />
        <mxCell id="0923mbtIkewnyXbzqq3c-4" style="edgeStyle=orthogonalEdgeStyle;rounded=0;orthogonalLoop=1;jettySize=auto;html=1;fontFamily=Times New Roman;fontSize=13;" parent="1" source="0923mbtIkewnyXbzqq3c-2" target="0923mbtIkewnyXbzqq3c-5" edge="1">
          <mxGeometry relative="1" as="geometry">
            <mxPoint x="230" y="320" as="targetPoint" />
          </mxGeometry>
        </mxCell>
        <mxCell id="0923mbtIkewnyXbzqq3c-2" value="{}" style="ellipse;whiteSpace=wrap;html=1;fontFamily=Times New Roman;fontSize=16;fontStyle=0" parent="1" vertex="1">
          <mxGeometry x="40" y="280" width="120" height="80" as="geometry" />
        </mxCell>
        <mxCell id="0923mbtIkewnyXbzqq3c-3" value="&lt;div style=&quot;font-size: 13px;&quot;&gt;&lt;span style=&quot;background-color: rgb(185, 224, 165);&quot;&gt;&amp;nbsp;Open&amp;nbsp; &lt;br&gt;&lt;/span&gt;&lt;/div&gt;&lt;div style=&quot;font-size: 13px;&quot;&gt;&lt;span style=&quot;background-color: rgb(255, 217, 102);&quot;&gt;&amp;nbsp;Update from customer&amp;nbsp; &lt;/span&gt;&lt;br style=&quot;font-size: 13px;&quot;&gt;&lt;/div&gt;" style="text;html=1;align=left;verticalAlign=middle;resizable=0;points=[];autosize=1;strokeColor=none;fillColor=none;fontSize=13;fontFamily=Times New Roman;" parent="1" vertex="1">
          <mxGeometry x="40" y="330" width="140" height="40" as="geometry" />
        </mxCell>
        <mxCell id="0923mbtIkewnyXbzqq3c-7" style="edgeStyle=orthogonalEdgeStyle;rounded=0;orthogonalLoop=1;jettySize=auto;html=1;fontFamily=Times New Roman;fontSize=13;" parent="1" source="0923mbtIkewnyXbzqq3c-5" target="0923mbtIkewnyXbzqq3c-6" edge="1">
          <mxGeometry relative="1" as="geometry" />
        </mxCell>
        <mxCell id="0923mbtIkewnyXbzqq3c-9" style="edgeStyle=orthogonalEdgeStyle;rounded=0;orthogonalLoop=1;jettySize=auto;html=1;fontFamily=Times New Roman;fontSize=13;" parent="1" source="0923mbtIkewnyXbzqq3c-5" target="0923mbtIkewnyXbzqq3c-8" edge="1">
          <mxGeometry relative="1" as="geometry" />
        </mxCell>
        <mxCell id="0923mbtIkewnyXbzqq3c-5" value="{Open}" style="ellipse;whiteSpace=wrap;html=1;fontFamily=Times New Roman;fontSize=16;fontStyle=0" parent="1" vertex="1">
          <mxGeometry x="230" y="280" width="120" height="80" as="geometry" />
        </mxCell>
        <mxCell id="0923mbtIkewnyXbzqq3c-6" value="{Assign to 1st Line Operator}" style="ellipse;whiteSpace=wrap;html=1;fontFamily=Times New Roman;fontSize=16;fontStyle=0" parent="1" vertex="1">
          <mxGeometry x="230" y="140" width="120" height="80" as="geometry" />
        </mxCell>
        <mxCell id="0923mbtIkewnyXbzqq3c-8" value="{Update from customer}" style="ellipse;whiteSpace=wrap;html=1;fontFamily=Times New Roman;fontSize=16;fontStyle=0" parent="1" vertex="1">
          <mxGeometry x="230" y="420" width="120" height="80" as="geometry" />
        </mxCell>
        <mxCell id="0923mbtIkewnyXbzqq3c-10" value="&lt;div style=&quot;font-size: 13px;&quot;&gt;&lt;span style=&quot;background-color: rgb(185, 224, 165);&quot;&gt;&amp;nbsp;Open&amp;nbsp; &lt;br&gt;&lt;/span&gt;&lt;/div&gt;" style="text;html=1;align=left;verticalAlign=middle;resizable=0;points=[];autosize=1;strokeColor=none;fillColor=none;fontSize=13;fontFamily=Times New Roman;" parent="1" vertex="1">
          <mxGeometry x="230" y="330" width="50" height="20" as="geometry" />
        </mxCell>
        <mxCell id="0923mbtIkewnyXbzqq3c-12" value="&lt;span style=&quot;background-color: rgb(255, 217, 102);&quot;&gt;&amp;nbsp;Update from customer&amp;nbsp; &lt;/span&gt;" style="text;html=1;align=left;verticalAlign=middle;resizable=0;points=[];autosize=1;strokeColor=none;fillColor=none;fontSize=13;fontFamily=Times New Roman;" parent="1" vertex="1">
          <mxGeometry x="230" y="480" width="140" height="20" as="geometry" />
        </mxCell>
        <mxCell id="L82_kG8VHEw7eTSPL20z-6" value="&lt;div align=&quot;left&quot;&gt;&lt;u&gt;&lt;b&gt;IM0000059&lt;/b&gt;&lt;/u&gt;&lt;/div&gt;&lt;div align=&quot;left&quot;&gt;&lt;br&gt;&lt;/div&gt;&lt;div align=&quot;left&quot;&gt;Open&lt;br&gt;Update from customer&lt;br&gt;Update Description Info&lt;br&gt;Update from customer&lt;br&gt;Assign to 1st Line Operator&lt;br&gt;Assign to 1st Line Operator&lt;br&gt;Assign to 2nd Line Operator&lt;br&gt;Assign to 1st Line Operator&lt;br&gt;Assign to 2nd Line Operator&lt;br&gt;Update from customer&lt;br&gt;Update from customer&lt;br&gt;Set Asset Caused&lt;br&gt;Close&lt;br&gt;Assign to 1st Line Operator&lt;br&gt;Re-open&lt;br&gt;Assign to 1st Line Operator&lt;br&gt;Close&lt;/div&gt;" style="text;html=1;align=left;verticalAlign=middle;resizable=0;points=[];autosize=1;strokeColor=none;fillColor=none;fontFamily=Times New Roman;" vertex="1" parent="1">
          <mxGeometry x="520" y="125" width="150" height="270" as="geometry" />
        </mxCell>
      </root>
    </mxGraphModel>
  </diagram>
</mxfile>
